:SAMPLES-PER-SECOND 30
:FULLY-SPECIFIED
:DEGREES
882
root  -7.25755 37.5004 -4.09526 176.483 89.1241 176.935
RightUpLeg  -17.7924 -17.8044 -11.7701
RightLeg  30.657 -4.8003 -3.32654
RightFoot  -3.49763 -1.08254 15.3944
RightToes  -2.32832e-010 0 -3.6325e-017
Spine  24.1526 -1.69446 5.99577
Spine1  -4.32146 -1.44511 6.59644
HEad  -13.7653 2.96007 -9.79791
LeftShoulder1  1.15163 -0.881757 -19.7876
LeftArm  -5.91742 35.8438 -57.9501
LeftForeArm  75.4053 -79.4662 -83.8765
LeftHand  -1.50308 -1.95116 23.7217
RightShoulder  0.651784 -0.767641 17.1534
RightArm  -14.0267 -30.0349 38.9633
RightForeArm  145.264 69.4674 150.778
RightHand  -0.699895 -0.262175 -15.8308
LeftUpLeg  -14.3892 7.36249 27.2157
LeftLeg  26.5522 -8.89987 -4.45219
LeftFoot  3.29809 4.44694 -33.5
LeftToes  2.2737e-010 4.38529e-011 2.18788e-011
883
root  -7.51447 36.6168 -4.41433 -140.919 75.1201 -137.926
RightUpLeg  -13.4202 -23.7249 -8.30523
RightLeg  34.8694 -8.34711 -6.47176
RightFoot  -6.99809 -0.710656 17.3616
RightToes  -2.32832e-010 0 -3.6325e-017
Spine  27.5041 -4.02579 -0.328975
Spine1  -5.6387 -8.36648 31.0736
HEad  -15.3903 8.05815 -15.8393
LeftShoulder1  1.23239 -1.55624 -17.7586
LeftArm  -2.23913 28.0442 -62.9526
LeftForeArm  84.3664 -79.5236 -91.847
LeftHand  -1.50174 -1.81865 24.1005
RightShoulder  0.255192 -2.29375 14.4309
RightArm  -14.6578 -32.0171 36.0123
RightForeArm  149.433 66.0537 155.64
RightHand  -0.574223 -0.68477 -14.1418
LeftUpLeg  -20.0108 2.59903 33.3967
LeftLeg  30.7054 -14.9667 -9.05783
LeftFoot  -4.8373 1.97537 -33.1317
LeftToes  2.2737e-010 4.38529e-011 2.18788e-011
884
root  -7.75936 35.9884 -4.61831 -149.968 68.3453 -145.766
RightUpLeg  -12.4494 -24.1616 -6.58766
RightLeg  38.6955 -11.5486 -10.0229
RightFoot  -8.4271 -0.563691 19.5853
RightToes  -2.32832e-010 0 -3.6325e-017
Spine  29.3187 -4.65567 -5.21912
Spine1  -4.38646 -12.538 44.4277
HEad  -18.8654 10.2829 -17.4288
LeftShoulder1  1.14943 -1.9087 -14.2869
LeftArm  0.524134 22.4347 -63.7914
LeftForeArm  106.601 -78.707 -113.272
LeftHand  -1.34002 -1.57963 22.3094
RightShoulder  0.00371066 -3.45136 12.3909
RightArm  -18.3129 -32.7268 37.1288
RightForeArm  151.725 63.0445 158.782
RightHand  -0.48822 -0.853315 -12.4645
LeftUpLeg  -24.2133 -0.626865 35.6188
LeftLeg  33.535 -16.0309 -10.8138
LeftFoot  -9.45026 0.573097 -30.8739
LeftToes  2.2737e-010 4.38529e-011 2.18788e-011
885
root  -8.00061 35.5837 -5.05203 -150.652 69.0503 -147.317
RightUpLeg  -15.2514 -21.0498 -7.65178
RightLeg  41.8194 -12.4527 -11.9308
RightFoot  -8.35764 -0.581158 19.938
RightToes  -2.32832e-010 0 -3.6325e-017
Spine  28.3158 -4.0641 -6.77282
Spine1  -1.8277 -13.2667 44.0104
HEad  -21.4118 9.32102 -14.9961
LeftShoulder1  1.0185 -1.5877 -12.9961
LeftArm  0.229164 21.2434 -61.5376
LeftForeArm  116.083 -77.7267 -122.686
LeftHand  -1.2681 -1.48856 21.4182
RightShoulder  -0.021634 -3.59479 12.7162
RightArm  -22.6837 -33.2575 40.3369
RightForeArm  153.143 60.5416 160.894
RightHand  -0.449879 -0.913832 -11.631
LeftUpLeg  -26.5013 -2.76618 33.8924
LeftLeg  36.767 -13.1063 -9.94304
LeftFoot  -12.8371 -0.313909 -29.2235
LeftToes  2.2737e-010 4.38529e-011 2.18788e-011
886
root  -8.28705 35.3975 -5.86138 -161.993 76.2203 -159.582
RightUpLeg  -18.7744 -17.8499 -13.7975
RightLeg  42.9798 -10.0042 -10.1195
RightFoot  -7.71169 -0.662281 19.0871
RightToes  -2.32832e-010 0 -3.6325e-017
Spine  27.2735 -3.01317 -4.95205
Spine1  -0.55252 -9.97223 31.328
HEad  -21.2193 6.26982 -11.367
LeftShoulder1  1.06553 -1.38437 -14.918
LeftArm  -1.43504 23.9915 -56.9861
LeftForeArm  107.733 -78.5769 -114.504
LeftHand  -1.31968 -1.52364 22.1538
RightShoulder  0.0931778 -3.02554 13.4483
RightArm  -24.6134 -32.9131 44.1342
RightForeArm  154.412 58.7803 162.227
RightHand  -0.462155 -1.0276 -12.2376
LeftUpLeg  -25.2082 -2.7189 27.4397
LeftLeg  39.8494 -8.73864 -7.38139
LeftFoot  -15.57 -0.930487 -27.2448
LeftToes  2.2737e-010 4.38529e-011 2.18788e-011
887
root  -8.58475 35.4078 -6.88147 -171.768 87.6744 -168.84
RightUpLeg  -21.8216 -16.3184 -23.5995
RightLeg  41.8421 -4.69554 -4.80821
RightFoot  -6.33005 -0.887433 19.0808
RightToes  -2.32832e-010 0 -3.6325e-017
Spine  28.3174 -1.92304 -1.53352
Spine1  -1.05101 -4.41369 10.9887
HEad  -19.5249 2.50157 -8.17956
LeftShoulder1  1.26733 -1.791 -17.2679
LeftArm  -2.68709 28.9698 -51.0406
LeftForeArm  96.2566 -79.3787 -102.643
LeftHand  -1.32238 -1.39331 22.6045
RightShoulder  0.20433 -2.46747 13.1065
RightArm  -23.4091 -30.6721 46.5531
RightForeArm  155.024 58.4353 162.496
RightHand  -0.503996 -1.15686 -13.7509
LeftUpLeg  -20.3393 1.56669 17.195
LeftLeg  40.595 -5.31926 -4.50072
LeftFoot  -17.145 -1.16419 -24.6023
LeftToes  2.2737e-010 4.38529e-011 2.18788e-011
